<svg xmlns="http://www.w3.org/2000/svg" width="640" height="288" viewBox="0 0 640 288">
  <rect x="0" y="0" width="640" height="288" fill="white" />
  <text x="8" y="18" font-family="monospace" font-size="12">T0 long_horizon_extrapolation prediction preview: input target slwm slwm_no_spectral vanilla_transformer noop_signal</text>
  <g transform="translate(0,32)">
    <line x1="0" y1="120.00" x2="640" y2="120.00" stroke="#dddddd" stroke-width="1" />
    <polyline points="0.00,31.09 27.83,88.46 55.65,153.95 83.48,130.12 111.30,98.58 139.13,154.45 166.96,213.94 194.78,180.02 222.61,134.99 250.43,174.88 278.26,217.01 306.09,165.52 333.91,103.90 361.74,129.33 389.57,160.10 417.39,101.12 445.22,36.41 473.04,63.34 500.87,100.11 528.70,51.22 556.52,0.00 584.35,42.90 612.17,97.03 640.00,65.73" fill="none" stroke="#777777" stroke-width="1.7" /> <polyline points="0.00,174.88 27.83,217.01 55.65,165.52 83.48,103.90 111.30,129.33 139.13,160.10 166.96,101.12 194.78,36.41 222.61,63.34 250.43,100.11 278.26,51.22 306.09,0.00 333.91,42.90 361.74,97.03 389.57,65.73 417.39,31.09 445.22,88.46 473.04,153.95 500.87,130.12 528.70,98.58 556.52,154.45 584.35,213.94 612.17,180.02 640.00,134.99" fill="none" stroke="#111111" stroke-width="1.7" /> <polyline points="0.00,128.88 27.83,179.39 55.65,133.00 83.48,124.62 111.30,108.41 139.13,115.04 166.96,101.44 194.78,78.47 222.61,139.05 250.43,136.76 278.26,103.39 306.09,46.09 333.91,78.73 361.74,124.62 389.57,66.85 417.39,53.26 445.22,126.92 473.04,136.37 500.87,122.55 528.70,131.67 556.52,131.18 584.35,129.58 612.17,101.21 640.00,100.89" fill="none" stroke="#1f77b4" stroke-width="1.7" /> <polyline points="0.00,184.64 27.83,175.17 55.65,147.35 83.48,109.53 111.30,109.38 139.13,138.59 166.96,101.83 194.78,41.99 222.61,147.97 250.43,110.59 278.26,60.59 306.09,51.16 333.91,70.43 361.74,111.54 389.57,60.01 417.39,2.12 445.22,115.80 473.04,143.70 500.87,132.02 528.70,140.03 556.52,145.31 584.35,200.52 612.17,137.56 640.00,136.31" fill="none" stroke="#ff7f0e" stroke-width="1.7" /> <polyline points="0.00,151.77 27.83,174.73 55.65,160.68 83.48,123.09 111.30,101.39 139.13,155.45 166.96,111.14 194.78,49.71 222.61,34.88 250.43,90.26 278.26,95.85 306.09,45.47 333.91,51.18 361.74,105.09 389.57,66.82 417.39,44.46 445.22,59.53 473.04,151.52 500.87,169.10 528.70,91.22 556.52,112.11 584.35,176.90 612.17,157.10 640.00,144.01" fill="none" stroke="#2ca02c" stroke-width="1.7" /> <polyline points="0.00,31.09 27.83,88.46 55.65,153.95 83.48,130.12 111.30,98.58 139.13,154.45 166.96,213.94 194.78,180.02 222.61,134.99 250.43,174.88 278.26,217.01 306.09,165.52 333.91,103.90 361.74,129.33 389.57,160.10 417.39,101.12 445.22,36.41 473.04,63.34 500.87,100.11 528.70,51.22 556.52,0.00 584.35,42.90 612.17,97.03 640.00,65.73" fill="none" stroke="#9467bd" stroke-width="1.7" />
  </g>
</svg>
