<svg xmlns="http://www.w3.org/2000/svg" width="640" height="288" viewBox="0 0 640 288">
  <rect x="0" y="0" width="640" height="288" fill="white" />
  <text x="8" y="18" font-family="monospace" font-size="12">T0 chirp_extrapolation prediction preview: input target slwm slwm_no_spectral vanilla_transformer noop_signal</text>
  <g transform="translate(0,32)">
    <line x1="0" y1="120.00" x2="640" y2="120.00" stroke="#dddddd" stroke-width="1" />
    <polyline points="0.00,53.18 27.83,34.50 55.65,21.78 83.48,22.10 111.30,41.71 139.13,81.52 166.96,132.12 194.78,172.40 222.61,177.01 250.43,134.27 278.26,64.97 306.09,20.92 333.91,47.28 361.74,128.44 389.57,180.54 417.39,134.90 445.22,41.56 473.04,32.69 500.87,130.84 528.70,177.89 556.52,83.67 584.35,21.63 612.17,122.20 640.00,174.33" fill="none" stroke="#777777" stroke-width="1.7" /> <polyline points="0.00,14.59 27.83,34.35 55.65,74.44 83.48,125.40 111.30,165.97 139.13,170.62 166.96,127.58 194.78,57.78 222.61,13.41 250.43,39.96 278.26,121.70 306.09,174.17 333.91,128.21 361.74,34.20 389.57,25.27 417.39,124.11 445.22,171.51 473.04,76.61 500.87,14.13 528.70,115.42 556.52,167.92 584.35,48.20 612.17,39.41 640.00,167.50" fill="none" stroke="#111111" stroke-width="1.7" /> <polyline points="0.00,23.96 27.83,21.34 55.65,78.32 83.48,128.45 111.30,187.39 139.13,114.00 166.96,147.05 194.78,61.35 222.61,26.45 250.43,0.00 278.26,126.00 306.09,161.41 333.91,130.82 361.74,63.10 389.57,37.44 417.39,116.71 445.22,134.28 473.04,71.15 500.87,14.65 528.70,94.18 556.52,175.80 584.35,75.16 612.17,9.34 640.00,85.79" fill="none" stroke="#1f77b4" stroke-width="1.7" /> <polyline points="0.00,89.22 27.83,99.31 55.65,154.44 83.48,199.22 111.30,91.98 139.13,124.02 166.96,63.28 194.78,52.83 222.61,83.37 250.43,38.27 278.26,61.21 306.09,124.44 333.91,88.76 361.74,99.84 389.57,63.09 417.39,104.72 445.22,172.29 473.04,154.42 500.87,4.67 528.70,43.05 556.52,170.51 584.35,133.87 612.17,51.11 640.00,115.61" fill="none" stroke="#ff7f0e" stroke-width="1.7" /> <polyline points="0.00,85.68 27.83,104.55 55.65,136.13 83.48,126.29 111.30,124.74 139.13,122.36 166.96,111.64 194.78,58.29 222.61,47.16 250.43,51.37 278.26,64.74 306.09,126.41 333.91,114.53 361.74,51.09 389.57,56.19 417.39,122.45 445.22,144.94 473.04,68.89 500.87,47.98 528.70,71.08 556.52,86.60 584.35,118.04 612.17,110.86 640.00,161.36" fill="none" stroke="#2ca02c" stroke-width="1.7" /> <polyline points="0.00,53.18 27.83,34.50 55.65,21.78 83.48,22.10 111.30,41.71 139.13,81.52 166.96,132.12 194.78,172.40 222.61,177.01 250.43,134.27 278.26,64.97 306.09,20.92 333.91,47.28 361.74,128.44 389.57,180.54 417.39,134.90 445.22,41.56 473.04,32.69 500.87,130.84 528.70,177.89 556.52,83.67 584.35,21.63 612.17,122.20 640.00,174.33" fill="none" stroke="#9467bd" stroke-width="1.7" />
  </g>
</svg>
