<svg xmlns="http://www.w3.org/2000/svg" width="640" height="288" viewBox="0 0 640 288">
  <rect x="0" y="0" width="640" height="288" fill="white" />
  <text x="8" y="18" font-family="monospace" font-size="12">T0 phase_shift_detection prediction preview: input target slwm slwm_no_spectral vanilla_transformer noop_signal</text>
  <g transform="translate(0,32)">
    <line x1="0" y1="120.00" x2="640" y2="120.00" stroke="#dddddd" stroke-width="1" />
    <polyline points="0.00,50.18 27.83,196.15 55.65,183.69 83.48,37.72 111.30,50.18 139.13,196.15 166.96,183.69 194.78,37.72 222.61,50.18 250.43,196.15 278.26,183.69 306.09,37.72 333.91,50.18 361.74,196.15 389.57,183.69 417.39,37.72 445.22,50.18 473.04,196.15 500.87,183.69 528.70,37.72 556.52,50.18 584.35,196.15 612.17,183.69 640.00,37.72" fill="none" stroke="#777777" stroke-width="1.7" /> <polyline points="0.00,196.15 27.83,183.69 55.65,37.72 83.48,50.18 111.30,196.15 139.13,183.69 166.96,37.72 194.78,50.18 222.61,196.15 250.43,183.69 278.26,37.72 306.09,50.18 333.91,196.15 361.74,183.69 389.57,37.72 417.39,50.18 445.22,196.15 473.04,183.69 500.87,37.72 528.70,50.18 556.52,196.15 584.35,183.69 612.17,37.72 640.00,50.18" fill="none" stroke="#111111" stroke-width="1.7" /> <polyline points="0.00,160.51 27.83,171.46 55.65,100.85 83.48,5.59 111.30,120.99 139.13,142.76 166.96,122.26 194.78,110.67 222.61,159.45 250.43,185.41 278.26,111.54 306.09,60.51 333.91,96.22 361.74,122.93 389.57,106.92 417.39,110.26 445.22,173.45 473.04,167.26 500.87,104.78 528.70,45.19 556.52,85.80 584.35,117.22 612.17,125.69 640.00,127.77" fill="none" stroke="#1f77b4" stroke-width="1.7" /> <polyline points="0.00,201.50 27.83,198.57 55.65,36.10 83.48,0.00 111.30,154.34 139.13,156.57 166.96,75.66 194.78,26.33 222.61,133.11 250.43,240.00 278.26,53.68 306.09,42.23 333.91,155.11 361.74,101.78 389.57,48.50 417.39,102.22 445.22,222.93 473.04,211.48 500.87,51.67 528.70,112.18 556.52,146.32 584.35,198.79 612.17,48.55 640.00,56.47" fill="none" stroke="#ff7f0e" stroke-width="1.7" /> <polyline points="0.00,134.79 27.83,122.29 55.65,155.96 83.48,136.42 111.30,108.20 139.13,89.20 166.96,99.67 194.78,135.22 222.61,171.08 250.43,127.45 278.26,36.95 306.09,131.72 333.91,170.27 361.74,123.27 389.57,99.51 417.39,39.00 445.22,190.07 473.04,156.53 500.87,112.60 528.70,68.89 556.52,132.92 584.35,104.36 612.17,102.77 640.00,74.02" fill="none" stroke="#2ca02c" stroke-width="1.7" /> <polyline points="0.00,50.18 27.83,196.15 55.65,183.69 83.48,37.72 111.30,50.18 139.13,196.15 166.96,183.69 194.78,37.72 222.61,50.18 250.43,196.15 278.26,183.69 306.09,37.72 333.91,50.18 361.74,196.15 389.57,183.69 417.39,37.72 445.22,50.18 473.04,196.15 500.87,183.69 528.70,37.72 556.52,50.18 584.35,196.15 612.17,183.69 640.00,37.72" fill="none" stroke="#9467bd" stroke-width="1.7" />
  </g>
</svg>
