<svg xmlns="http://www.w3.org/2000/svg" width="640" height="288" viewBox="0 0 640 288">
  <rect x="0" y="0" width="640" height="288" fill="white" />
  <text x="8" y="18" font-family="monospace" font-size="12">T0 noisy_periodic_denoising prediction preview: input target slwm slwm_no_spectral vanilla_transformer noop_signal</text>
  <g transform="translate(0,32)">
    <line x1="0" y1="120.00" x2="640" y2="120.00" stroke="#dddddd" stroke-width="1" />
    <polyline points="0.00,67.62 27.83,43.49 55.65,113.37 83.48,147.11 111.30,155.68 139.13,182.94 166.96,143.75 194.78,145.94 222.61,178.40 250.43,221.10 278.26,235.31 306.09,228.42 333.91,165.68 361.74,153.76 389.57,167.19 417.39,183.38 445.22,206.67 473.04,139.97 500.87,96.53 528.70,67.26 556.52,75.23 584.35,99.69 612.17,133.59 640.00,112.64" fill="none" stroke="#777777" stroke-width="1.7" /> <polyline points="0.00,81.60 27.83,70.99 55.65,96.54 83.48,142.49 111.30,174.70 139.13,173.92 166.96,154.22 194.78,147.97 222.61,172.62 250.43,212.51 278.26,233.87 306.09,218.22 333.91,180.62 361.74,154.67 389.57,159.18 417.39,179.83 445.22,184.18 473.04,154.91 500.87,108.00 528.70,77.70 556.52,83.09 584.35,109.81 612.17,125.01 640.00,110.61" fill="none" stroke="#111111" stroke-width="1.7" /> <polyline points="0.00,64.49 27.83,55.89 55.65,108.00 83.48,154.79 111.30,170.38 139.13,176.08 166.96,132.65 194.78,142.83 222.61,190.26 250.43,217.74 278.26,224.07 306.09,208.35 333.91,165.88 361.74,150.87 389.57,153.60 417.39,172.50 445.22,195.06 473.04,154.40 500.87,107.19 528.70,77.67 556.52,83.47 584.35,117.74 612.17,131.90 640.00,119.32" fill="none" stroke="#1f77b4" stroke-width="1.7" /> <polyline points="0.00,102.32 27.83,100.09 55.65,163.66 83.48,154.46 111.30,139.17 139.13,175.23 166.96,168.98 194.78,135.07 222.61,153.78 250.43,208.01 278.26,221.29 306.09,211.13 333.91,158.56 361.74,140.61 389.57,178.98 417.39,175.92 445.22,188.42 473.04,119.68 500.87,126.26 528.70,97.53 556.52,104.65 584.35,136.77 612.17,169.07 640.00,129.10" fill="none" stroke="#ff7f0e" stroke-width="1.7" /> <polyline points="0.00,55.39 27.83,53.78 55.65,126.02 83.48,152.95 111.30,160.71 139.13,170.36 166.96,148.31 194.78,160.21 222.61,152.18 250.43,187.21 278.26,228.05 306.09,212.62 333.91,171.62 361.74,127.20 389.57,147.09 417.39,187.47 445.22,186.03 473.04,159.61 500.87,95.30 528.70,66.53 556.52,86.56 584.35,143.69 612.17,162.66 640.00,112.00" fill="none" stroke="#2ca02c" stroke-width="1.7" /> <polyline points="0.00,67.62 27.83,43.49 55.65,113.37 83.48,147.11 111.30,155.68 139.13,182.94 166.96,143.75 194.78,145.94 222.61,178.40 250.43,221.10 278.26,235.31 306.09,228.42 333.91,165.68 361.74,153.76 389.57,167.19 417.39,183.38 445.22,206.67 473.04,139.97 500.87,96.53 528.70,67.26 556.52,75.23 584.35,99.69 612.17,133.59 640.00,112.64" fill="none" stroke="#9467bd" stroke-width="1.7" />
  </g>
</svg>
