<svg xmlns="http://www.w3.org/2000/svg" width="640" height="288" viewBox="0 0 640 288">
  <rect x="0" y="0" width="640" height="288" fill="white" />
  <text x="8" y="18" font-family="monospace" font-size="12">T0 sine_mixture prediction preview: input target slwm slwm_no_spectral vanilla_transformer noop_signal</text>
  <g transform="translate(0,32)">
    <line x1="0" y1="120.00" x2="640" y2="120.00" stroke="#dddddd" stroke-width="1" />
    <polyline points="0.00,134.77 27.83,240.00 55.65,212.84 83.48,93.71 111.30,32.61 139.13,82.36 166.96,142.40 194.78,123.58 222.61,80.39 250.43,114.61 278.26,202.32 306.09,213.66 333.91,105.23 361.74,0.00 389.57,27.16 417.39,146.29 445.22,207.39 473.04,157.64 500.87,97.60 528.70,116.42 556.52,159.61 584.35,125.39 612.17,37.68 640.00,26.34" fill="none" stroke="#777777" stroke-width="1.7" /> <polyline points="0.00,93.71 27.83,32.61 55.65,82.36 83.48,142.40 111.30,123.58 139.13,80.39 166.96,114.61 194.78,202.32 222.61,213.66 250.43,105.23 278.26,0.00 306.09,27.16 333.91,146.29 361.74,207.39 389.57,157.64 417.39,97.60 445.22,116.42 473.04,159.61 500.87,125.39 528.70,37.68 556.52,26.34 584.35,134.77 612.17,240.00 640.00,212.84" fill="none" stroke="#111111" stroke-width="1.7" /> <polyline points="0.00,134.88 27.83,97.06 55.65,75.42 83.48,84.44 111.30,117.51 139.13,103.53 166.96,91.90 194.78,161.03 222.61,170.33 250.43,134.00 278.26,86.18 306.09,99.32 333.91,148.77 361.74,156.56 389.57,83.58 417.39,70.81 445.22,95.19 473.04,95.51 500.87,94.08 528.70,117.45 556.52,94.46 584.35,160.26 612.17,202.54 640.00,183.47" fill="none" stroke="#1f77b4" stroke-width="1.7" /> <polyline points="0.00,106.15 27.83,105.24 55.65,101.49 83.48,139.40 111.30,159.21 139.13,138.35 166.96,152.68 194.78,136.93 222.61,138.73 250.43,129.85 278.26,119.93 306.09,107.07 333.91,118.14 361.74,123.60 389.57,85.90 417.39,78.76 445.22,85.28 473.04,96.09 500.87,106.15 528.70,130.02 556.52,126.18 584.35,125.53 612.17,135.55 640.00,127.12" fill="none" stroke="#ff7f0e" stroke-width="1.7" /> <polyline points="0.00,114.78 27.83,109.97 55.65,99.33 83.48,107.98 111.30,135.77 139.13,95.82 166.96,106.30 194.78,108.02 222.61,143.33 250.43,139.15 278.26,107.74 306.09,103.29 333.91,128.91 361.74,133.27 389.57,109.91 417.39,104.86 445.22,145.37 473.04,132.66 500.87,130.00 528.70,121.69 556.52,118.21 584.35,148.19 612.17,161.58 640.00,142.58" fill="none" stroke="#2ca02c" stroke-width="1.7" /> <polyline points="0.00,134.77 27.83,240.00 55.65,212.84 83.48,93.71 111.30,32.61 139.13,82.36 166.96,142.40 194.78,123.58 222.61,80.39 250.43,114.61 278.26,202.32 306.09,213.66 333.91,105.23 361.74,0.00 389.57,27.16 417.39,146.29 445.22,207.39 473.04,157.64 500.87,97.60 528.70,116.42 556.52,159.61 584.35,125.39 612.17,37.68 640.00,26.34" fill="none" stroke="#9467bd" stroke-width="1.7" />
  </g>
</svg>
