<svg xmlns="http://www.w3.org/2000/svg" width="640" height="288" viewBox="0 0 640 288">
  <rect x="0" y="0" width="640" height="288" fill="white" />
  <text x="8" y="18" font-family="monospace" font-size="12">T0 missing_span_reconstruction prediction preview: input target slwm slwm_no_spectral vanilla_transformer noop_signal</text>
  <g transform="translate(0,32)">
    <line x1="0" y1="120.00" x2="640" y2="120.00" stroke="#dddddd" stroke-width="1" />
    <polyline points="0.00,45.34 27.83,66.85 55.65,115.62 83.48,115.62 111.30,115.62 139.13,115.62 166.96,115.62 194.78,115.62 222.61,98.49 250.43,132.68 278.26,173.84 306.09,157.84 333.91,130.81 361.74,155.96 389.57,186.49 417.39,159.00 445.22,120.40 473.04,134.69 500.87,155.81 528.70,120.99 556.52,77.67 584.35,90.13 612.17,112.47 640.00,81.83" fill="none" stroke="#777777" stroke-width="1.7" /> <polyline points="0.00,45.34 27.83,66.85 55.65,99.82 83.48,80.67 111.30,55.75 139.13,88.12 166.96,130.50 194.78,118.67 222.61,98.49 250.43,132.68 278.26,173.84 306.09,157.84 333.91,130.81 361.74,155.96 389.57,186.49 417.39,159.00 445.22,120.40 473.04,134.69 500.87,155.81 528.70,120.99 556.52,77.67 584.35,90.13 612.17,112.47 640.00,81.83" fill="none" stroke="#111111" stroke-width="1.7" /> <polyline points="0.00,130.64 27.83,143.65 55.65,107.72 83.48,107.72 111.30,107.72 139.13,107.72 166.96,107.72 194.78,107.72 222.61,147.17 250.43,131.45 278.26,182.20 306.09,162.83 333.91,69.67 361.74,91.72 389.57,129.18 417.39,77.52 445.22,28.01 473.04,73.05 500.87,155.92 528.70,154.94 556.52,168.16 584.35,153.48 612.17,198.04 640.00,240.00" fill="none" stroke="#1f77b4" stroke-width="1.7" /> <polyline points="0.00,177.03 27.83,166.13 55.65,107.72 83.48,107.72 111.30,107.72 139.13,107.72 166.96,107.72 194.78,107.72 222.61,105.72 250.43,22.34 278.26,37.03 306.09,43.86 333.91,8.30 361.74,0.00 389.57,51.05 417.39,162.69 445.22,156.44 473.04,83.51 500.87,115.00 528.70,201.21 556.52,147.03 584.35,83.63 612.17,118.36 640.00,175.19" fill="none" stroke="#ff7f0e" stroke-width="1.7" /> <polyline points="0.00,62.67 27.83,90.62 55.65,107.32 83.48,107.32 111.30,107.32 139.13,107.32 166.96,107.32 194.78,107.32 222.61,110.61 250.43,96.99 278.26,112.29 306.09,143.51 333.91,138.54 361.74,117.39 389.57,134.87 417.39,150.29 445.22,141.43 473.04,124.60 500.87,127.18 528.70,144.38 556.52,91.82 584.35,86.34 612.17,96.25 640.00,92.97" fill="none" stroke="#2ca02c" stroke-width="1.7" /> <polyline points="0.00,45.34 27.83,66.85 55.65,115.62 83.48,115.62 111.30,115.62 139.13,115.62 166.96,115.62 194.78,115.62 222.61,98.49 250.43,132.68 278.26,173.84 306.09,157.84 333.91,130.81 361.74,155.96 389.57,186.49 417.39,159.00 445.22,120.40 473.04,134.69 500.87,155.81 528.70,120.99 556.52,77.67 584.35,90.13 612.17,112.47 640.00,81.83" fill="none" stroke="#9467bd" stroke-width="1.7" />
  </g>
</svg>
